<?xml version="1.0" standalone="no"?>
<!DOCTYPE svg PUBLIC "-//W3C//DTD SVG 20010904//EN"
 "http://www.w3.org/TR/2001/REC-SVG-20010904/DTD/svg10.dtd">
<svg version="1.0" xmlns="http://www.w3.org/2000/svg"
 width="260.000000pt" height="260.000000pt" viewBox="0 0 260.000000 260.000000"
 preserveAspectRatio="xMidYMid meet">
<metadata>
Created by potrace 1.11, written by Peter Selinger 2001-2013
</metadata>
<g transform="translate(0.000000,260.000000) scale(0.100000,-0.100000)"
fill="#000000" stroke="none">
<path d="M0 1300 l0 -1300 1300 0 1300 0 0 1300 0 1300 -1300 0 -1300 0 0
-1300z m900 614 c79 -23 126 -50 180 -100 56 -53 102 -146 108 -222 l5 -53
-128 3 -127 3 -13 39 c-32 93 -83 127 -195 134 -102 6 -171 -11 -215 -53 -38
-35 -42 -58 -21 -110 18 -43 75 -72 211 -109 177 -48 269 -78 319 -103 69 -35
141 -106 173 -172 25 -50 28 -67 28 -161 0 -97 -2 -110 -32 -172 -52 -110
-130 -172 -268 -214 -76 -23 -303 -26 -385 -5 -141 36 -237 108 -293 223 -35
71 -56 140 -57 184 0 20 7 22 93 28 50 4 106 9 122 12 30 5 31 4 49 -57 26
-84 89 -150 165 -173 175 -52 351 31 351 164 0 82 -58 121 -260 174 -253 66
-333 105 -400 192 -53 68 -73 124 -74 214 -1 62 4 85 25 131 53 112 146 182
289 214 82 19 272 13 350 -11z m1198 -4 c191 -22 304 -131 333 -322 38 -244
-103 -437 -342 -468 -40 -5 -143 -10 -226 -10 l-153 0 0 -245 0 -245 -130 0
-130 0 0 650 0 650 283 0 c155 0 320 -4 365 -10z"/>
<path d="M1710 1515 l0 -185 124 0 c68 0 147 5 177 10 205 39 212 303 9 349
-25 6 -105 11 -177 11 l-133 0 0 -185z"/>
</g>
</svg>
