<svg xmlns="http://www.w3.org/2000/svg" xmlns:xlink="http://www.w3.org/1999/xlink" width="238" zoomAndPan="magnify" viewBox="0 0 178.5 178.499993" height="238" preserveAspectRatio="xMidYMid meet" version="1.0"><defs><g/><clipPath id="1ccb77dd94"><path d="M 14.0625 14.0625 L 162.894531 14.0625 L 162.894531 162.894531 L 14.0625 162.894531 Z M 14.0625 14.0625 " clip-rule="nonzero"/></clipPath><clipPath id="4c596053ab"><path d="M 33.507812 14.0625 L 143.449219 14.0625 C 154.1875 14.0625 162.894531 22.765625 162.894531 33.507812 L 162.894531 143.449219 C 162.894531 154.1875 154.1875 162.894531 143.449219 162.894531 L 33.507812 162.894531 C 22.765625 162.894531 14.0625 154.1875 14.0625 143.449219 L 14.0625 33.507812 C 14.0625 22.765625 22.765625 14.0625 33.507812 14.0625 Z M 33.507812 14.0625 " clip-rule="nonzero"/></clipPath></defs><g clip-path="url(#1ccb77dd94)"><g clip-path="url(#4c596053ab)"><path fill="#545454" d="M 14.0625 14.0625 L 162.894531 14.0625 L 162.894531 162.894531 L 14.0625 162.894531 Z M 14.0625 14.0625 " fill-opacity="1" fill-rule="nonzero"/></g></g><g fill="#ffffff" fill-opacity="1"><g transform="translate(30.998556, 128.406064)"><g><path d="M 54.71875 -23.71875 C 54.71875 -15.925781 51.976562 -9.800781 46.5 -5.34375 C 41.019531 -0.894531 34.3125 1.328125 26.375 1.328125 C 16.289062 1.328125 7.644531 -0.804688 0.4375 -5.078125 L 5.625 -17.328125 C 11.363281 -11.953125 17.800781 -9.265625 24.9375 -9.265625 C 28.6875 -9.265625 31.898438 -10.296875 34.578125 -12.359375 C 37.265625 -14.421875 38.609375 -17.289062 38.609375 -20.96875 C 38.609375 -23.613281 37.722656 -25.960938 35.953125 -28.015625 C 34.191406 -30.078125 32.003906 -31.695312 29.390625 -32.875 C 26.785156 -34.050781 23.9375 -35.429688 20.84375 -37.015625 C 17.757812 -38.597656 14.910156 -40.195312 12.296875 -41.8125 C 9.691406 -43.425781 7.503906 -45.722656 5.734375 -48.703125 C 3.972656 -51.679688 3.09375 -55.125 3.09375 -59.03125 C 3.09375 -66.601562 5.71875 -72.335938 10.96875 -76.234375 C 16.226562 -80.128906 23.238281 -82.078125 32 -82.078125 C 35.300781 -82.078125 39.125 -81.414062 43.46875 -80.09375 C 47.8125 -78.769531 51.125 -77.226562 53.40625 -75.46875 L 45.78125 -65.96875 C 41.664062 -69.65625 36.59375 -71.5 30.5625 -71.5 C 27.46875 -71.5 24.800781 -70.6875 22.5625 -69.0625 C 20.320312 -67.445312 19.203125 -65.164062 19.203125 -62.21875 C 19.203125 -59.644531 20.082031 -57.382812 21.84375 -55.4375 C 23.613281 -53.488281 25.800781 -51.925781 28.40625 -50.75 C 31.019531 -49.570312 33.867188 -48.171875 36.953125 -46.546875 C 40.046875 -44.929688 42.894531 -43.296875 45.5 -41.640625 C 48.113281 -39.992188 50.300781 -37.625 52.0625 -34.53125 C 53.832031 -31.445312 54.71875 -27.84375 54.71875 -23.71875 Z M 54.71875 -23.71875 "/></g></g></g><g fill="#ffffff" fill-opacity="1"><g transform="translate(83.518026, 128.406064)"><g><path d="M 60.5625 -56.59375 C 60.5625 -48.65625 57.75 -42.644531 52.125 -38.5625 C 46.5 -34.476562 39.601562 -32.4375 31.4375 -32.4375 L 22.390625 -32.4375 L 22.390625 0 L 7.28125 0 L 7.28125 -74.03125 C 7.28125 -74.175781 7.019531 -75.257812 6.5 -77.28125 C 5.988281 -79.300781 5.695312 -80.460938 5.625 -80.765625 L 31.21875 -80.765625 C 40.050781 -80.765625 47.148438 -78.867188 52.515625 -75.078125 C 57.878906 -71.285156 60.5625 -65.125 60.5625 -56.59375 Z M 44.46875 -56.59375 C 44.46875 -60.71875 43.398438 -63.957031 41.265625 -66.3125 C 39.128906 -68.664062 36.003906 -69.84375 31.890625 -69.84375 L 22.5 -69.84375 L 22.5 -43.140625 L 31.78125 -43.140625 C 35.75 -43.140625 38.851562 -44.367188 41.09375 -46.828125 C 43.34375 -49.296875 44.46875 -52.550781 44.46875 -56.59375 Z M 44.46875 -56.59375 "/></g></g></g></svg>